<svg width="40" height="40" viewBox="0 0 40 40" fill="none" xmlns="http://www.w3.org/2000/svg">
<ellipse cx="20" cy="19.8883" rx="20" ry="19.8883" fill="#AC29C7" fill-opacity="0.6"/>
<path d="M25 9.94415H15C12.2386 9.94415 10 12.1702 10 14.9162V24.8604C10 27.6063 12.2386 29.8324 15 29.8324H25C27.7614 29.8324 30 27.6063 30 24.8604V14.9162C30 12.1702 27.7614 9.94415 25 9.94415Z" stroke="#EEEEEE" stroke-width="2" stroke-linecap="round" stroke-linejoin="round"/>
<path d="M24 19.2618C24.1234 20.0894 23.9813 20.9346 23.5938 21.6773C23.2063 22.4199 22.5932 23.0221 21.8416 23.3983C21.0901 23.7744 20.2385 23.9053 19.4078 23.7724C18.5771 23.6395 17.8098 23.2495 17.2149 22.6579C16.6199 22.0663 16.2277 21.3032 16.0941 20.4772C15.9604 19.6512 16.0921 18.8043 16.4703 18.057C16.8486 17.3096 17.4542 16.6999 18.201 16.3146C18.9478 15.9293 19.7978 15.7879 20.63 15.9106C21.4789 16.0358 22.2649 16.4292 22.8717 17.0326C23.4785 17.6361 23.8741 18.4176 24 19.2618Z" stroke="#EEEEEE" stroke-width="2" stroke-linecap="round" stroke-linejoin="round"/>
<path d="M25.5 14.419H25.51" stroke="#EEEEEE" stroke-width="2" stroke-linecap="round" stroke-linejoin="round"/>
</svg>
